<svg xmlns="http://www.w3.org/2000/svg" viewBox="0 0 67.96 21.43"><path fill="#027b5b" d="M0 0h67.96v21.43H0z"/><path fill="#fafcfc" d="M3.38 3.5h4.26v5.6c.4-.56.92-1.1 1.61-1.3a3.5 3.5 0 0 1 3.61.87c.9 1 1.2 2.36 1.23 3.66a7.5 7.5 0 0 1-.75 3.82 3.27 3.27 0 0 1-2.12 1.65c-.9.2-1.95.18-2.74-.37a3.66 3.66 0 0 1-1.12-1.54c.02.6 0 1.2-.03 1.8H3.38V3.5zm23.38 2.08c1.42-.46 2.82-.98 4.24-1.43v3.7h1.94v2.82c-.65.02-1.3-.01-1.95.02.02.97 0 1.95.02 2.92 0 .43.2.92.62 1.1.44.09.9 0 1.31-.13v2.83a8.46 8.46 0 0 1-3.7.45 2.69 2.69 0 0 1-1.88-1.16 4.6 4.6 0 0 1-.62-2.4v-3.62h-1.48c-.02-.93 0-1.88 0-2.82h1.5c0-.76-.04-1.52 0-2.28z"/><path fill="#f9dc1c" d="M33.95 4.83c1.38-.52 2.9-.54 4.34-.53A5.9 5.9 0 0 1 42 5.64c1.32 1.16 1.37 3.55-.02 4.67-.36.3-.78.5-1.23.66.64.22 1.28.53 1.73 1.06a3.4 3.4 0 0 1-1.22 5.15c-1.53.83-3.34.8-5.03.65-.8-.08-1.58-.23-2.35-.44-.03-1.02 0-2.05 0-3.07 1.31.44 2.75.73 4.13.4.92-.23.96-1.66.14-2.05-.87-.44-1.89-.27-2.8-.15v-2.9c.71.04 1.43.08 2.14-.04.44-.07.92-.3 1.04-.75.07-.37.03-.8-.23-1.08-.3-.34-.75-.48-1.18-.5a7.87 7.87 0 0 0-3.13.5c-.04-.98 0-1.95-.03-2.93zm11.33 1.52a5.76 5.76 0 0 1 4.08-2.03 14 14 0 0 1 4.33.35c-.02 1 0 2 0 3.02a9.33 9.33 0 0 0-3.55-.41c-.73.1-1.45.47-1.82 1.12a3.3 3.3 0 0 0-.35 1.45c.86-.67 2-.83 3.07-.77a4 4 0 0 1 3.25 2.1c.46.9.54 1.96.4 2.94a4.08 4.08 0 0 1-1.57 2.67 6.05 6.05 0 0 1-4.48 1.07 5.25 5.25 0 0 1-3.46-1.96 6.9 6.9 0 0 1-1.46-4.27c-.04-1.85.33-3.82 1.56-5.28zm10.4-1.82h8.34v3.03c-1.5.02-2.98-.02-4.47.02.01.67.02 1.34 0 2 .84 0 1.72-.13 2.53.16a3.65 3.65 0 0 1 2.34 2.63 4.84 4.84 0 0 1-.4 3.46 4.25 4.25 0 0 1-2.67 1.84 11.5 11.5 0 0 1-5.8-.3c-.04-1 0-2.01-.03-3.02 1.21.3 2.51.6 3.73.2 1.02-.31 1.17-1.82.37-2.44a2.98 2.98 0 0 0-1.7-.48 7.97 7.97 0 0 0-1.94.23.9.9 0 0 0-.37.18c.04-.1.06-.22.07-.33z"/><path fill="#fafcfc" d="M16.1 9.03c1.07-1.08 2.7-1.4 4.17-1.4a4.5 4.5 0 0 1 3.15 1.04c.87.8 1.28 1.99 1.44 3.14.1.7.1 1.4.1 2.1h-5.92c.03.35.1.72.36.97.47.44 1.16.5 1.77.55 1.08 0 2.2-.1 3.16-.63v2.55c-1.2.42-2.5.55-3.76.57-1.44.02-2.99-.23-4.1-1.2a4.97 4.97 0 0 1-1.58-3.6c-.1-1.44.15-3.02 1.2-4.08z"/><path fill="#027b5b" d="M19.41 10.28c.35-.5 1.2-.52 1.52-.01.3.46.33 1.04.34 1.58h-2.23c.02-.54.05-1.12.38-1.57zm-11.06.3a.9.9 0 0 1 1.05.46c.26.52.25 1.1.26 1.68a3.16 3.16 0 0 1-.37 1.67c-.3.48-1.13.48-1.44-.02a2.94 2.94 0 0 1-.32-1.55c0-.51 0-1.04.15-1.53.1-.32.33-.62.67-.7zm40.53 1.06c.6-.22 1.36-.03 1.7.54.4.7.38 1.64-.05 2.32-.43.7-1.59.8-2.12.16-.46-.52-.5-1.28-.36-1.93.1-.46.37-.92.83-1.1z"/></svg>
