<svg xmlns="http://www.w3.org/2000/svg" viewBox="0 0 220 60"><path fill="none" d="M0 0h220v59.88H0z"/><path fill="#fff" d="M43.02 45.07a.88.88 0 0 0-.53.62.9.9 0 0 0 .2.8 405.46 405.46 0 0 0 4.35 6.46c.22.39.52.42.9.08a38.51 38.51 0 0 0 3.94-3.94 31.45 31.45 0 0 0 6.49-14.91c.06-.06-.06 0-.33.17a924.47 924.47 0 0 0-15.03 10.72zm13.42-26.68c-.08-.03-.29.07-.61.3a13121.99 13121.99 0 0 1-20.11 14.23c-.49.3-.88.73-1.12 1.25-.08.34.1.84.54 1.51l4.08 5.95c.38.56.69.87.9.92.23.06.61-.11 1.15-.5 1.26-.95 3.08-2.24 5.46-3.89 2.38-1.64 4.03-2.81 4.96-3.5 3.12-2.18 5.2-3.66 6.25-4.44a1.5 1.5 0 0 0 .82-1.34 33.9 33.9 0 0 0-1.95-9.95c-.16-.33-.29-.51-.37-.54zm-29.82 4.14c0 .5.17.97.5 1.34.8 1.22 2.2 3.29 4.15 6.2.33.5.57.77.78.79.38-.05.74-.2 1.02-.46 1.05-.72 4.55-3.2 10.52-7.44v.08c5.26-3.74 8.71-6.22 10.35-7.45.55-.34.83-.59.86-.76.03-.16-.12-.5-.45-1a31.6 31.6 0 0 0-5.01-5.94c-.55-.57-.92-.85-1.11-.85-.47.13-.9.36-1.27.66a.23.23 0 0 0-.17.08.24.24 0 0 1-.17.1C36.17 15.3 29.8 19.81 27.5 21.43c-.41.24-.72.63-.87 1.1zm15.12 29.41c-.9-1.3-1.49-2.19-1.76-2.63-.44-.62-.77-.95-.99-1-.45-.01-.9.1-1.3.33a20.24 20.24 0 0 1-13.19 1.09 19.3 19.3 0 0 1-10.72-6.68C9.5 37.7 8.1 31.8 9.59 25.38c1.91-8.43 6.84-13.6 14.78-15.49a19.1 19.1 0 0 1 10.84.65 1.95 1.95 0 0 0 2.05-.33c.22-.17 1.4-1.01 3.54-2.52a88.27 88.27 0 0 0 3.61-2.6c.33-.27.52-.44.58-.5 0-.1-.2-.27-.58-.5A27.82 27.82 0 0 0 25.65.33 28.53 28.53 0 0 0 8.46 9.2c-3.86 4-6.55 9.02-7.75 14.5a30.5 30.5 0 0 0 .95 16.47 29.23 29.23 0 0 0 9.49 13.41 27.76 27.76 0 0 0 15.8 6.2 28.51 28.51 0 0 0 16.9-3.87.65.65 0 0 0 .13-.63 1770.19 1770.19 0 0 0-2.24-3.34zM208.67 21.69v4.9h8.9v6.33h-8.9v4.89H220v6.46h-17.8V15.23H220v6.46h-11.33zm-25.1 8.06l-6.36-14.52h-7.2l13.55 29.37 13.55-29.37h-7.2l-6.35 14.52zm-22.5 2.2l9.34 12.32h-7.72l-8.9-11.8h-.08v11.8h-6.47V15.23h10.83c2 0 3.94.71 5.47 2.01a8.66 8.66 0 0 1 1.95 10.9 8.57 8.57 0 0 1-4.43 3.82zm-.73-7.85a2.95 2.95 0 0 0-1.85-2.71c-.36-.14-.74-.2-1.13-.2h-3.64v5.78h3.64a2.83 2.83 0 0 0 2.75-1.74c.16-.35.24-.74.24-1.13h-.01zm-27.5 8.47c0 3.52-2.15 5.73-5.3 5.73s-5.29-2.21-5.29-5.73V15.23h-6.47V32.5c0 7.28 4.9 12.1 11.77 12.1s11.77-4.82 11.77-12.1V15.23h-6.47l-.01 17.34zm-49.2-2.9c-.03 8.18 6.12 15.18 15.97 15.23 4.65.03 7.73-1.6 10.73-4.06l-3.54-5.26a10.09 10.09 0 0 1-7.16 2.81c-5.32-.02-8.62-3.86-8.6-8.7s3.37-8.63 8.69-8.6a10.09 10.09 0 0 1 7.13 2.9l3.6-5.24c-2.98-2.5-6.05-4.15-10.7-4.17-9.85-.03-16.07 6.91-16.12 15.1v-.02z"/></svg>
