<svg xmlns="http://www.w3.org/2000/svg" fill="none" viewBox="0 0 32 31.21"><path fill="#fff" fill-rule="evenodd" d="M16 0a16 16 0 0 0-5.06 31.18c.8.14 1.1-.34 1.1-.76l-.02-2.98c-4.02.74-5.06-.98-5.38-1.88-.18-.46-.96-1.88-1.64-2.26-.56-.3-1.36-1.04-.02-1.06 1.26-.02 2.16 1.16 2.46 1.64 1.44 2.42 3.74 1.74 4.66 1.32a3.37 3.37 0 0 1 1.02-2.14c-3.56-.4-7.28-1.78-7.28-7.9 0-1.74.62-3.18 1.64-4.3-.16-.4-.72-2.04.16-4.24 0 0 1.34-.42 4.4 1.64a14.85 14.85 0 0 1 8 0c3.06-2.08 4.4-1.64 4.4-1.64.88 2.2.32 3.84.16 4.24a6.2 6.2 0 0 1 1.64 4.3c0 6.14-3.74 7.5-7.3 7.9.58.5 1.08 1.46 1.08 2.96l-.02 4.4c0 .42.3.92 1.1.76A16 16 0 0 0 16 0z" clip-rule="evenodd"/></svg>
