<svg xmlns="http://www.w3.org/2000/svg" viewBox="0 0 590.4 186.72"><defs><style>.logo-a{fill:#6d6f70}.logo-b{fill:none}.logo-c{fill:#cd2026}.logo-d{fill:#9a1b1e}.logo-e{fill:#640d0b}</style></defs><path d="M228.26 168.21a26.9 26.9 0 0 1-.09 3.47c-.18 2-.87 3.2-2.18 3.73-1 .41-2.4.53-7.06.53-6.4 0-7.57-.19-8.74-1.4-.99-1.04-1.22-2.24-1.22-6.42 0-4.2.23-5.4 1.22-6.44 1.2-1.24 2.28-1.4 9.29-1.4 4.71 0 5.95.16 7.06.92 1.06.71 1.5 1.75 1.56 3.75h-1.82c-.04-1.45-.13-1.87-.57-2.26-.74-.71-1.4-.8-5.59-.8-6.05 0-7.36.11-8.16.69-.87.64-1.08 1.68-1.08 5.54 0 3.5.16 4.62.8 5.27.74.78 1.87.94 6.46.94 5.98 0 6.79-.1 7.57-.97.57-.62.69-1.2.76-3.6h-8.21v-1.55zM231.74 160.44h15.27v1.54h-13.43v5.13h12.95v1.45h-12.95v5.68h13.54v1.54h-15.38zM268.24 161.68c.99 1.03 1.22 2.23 1.22 6.42 0 4.2-.23 5.4-1.22 6.43-1.18 1.22-2.35 1.4-8.65 1.4s-7.47-.18-8.64-1.4c-1-1.03-1.22-2.23-1.22-6.41 0-4.2.23-5.43 1.22-6.44 1.17-1.22 2.34-1.4 8.73-1.4 6.19 0 7.38.2 8.56 1.4zm-15.8 1.15c-.64.67-.8 1.77-.8 5.29 0 3.5.16 4.6.8 5.26.78.83 1.75.95 7.15.95s6.37-.14 7.15-.95c.65-.66.8-1.77.8-5.26 0-3.52-.15-4.62-.8-5.29-.71-.78-2-.94-7.06-.94-5.29 0-6.5.16-7.24.94zM273.02 160.44h2.97l9.24 13.2 9.27-13.2h2.87v15.34h-1.84v-13.82l-9.66 13.82h-1.35l-9.66-13.82v13.82h-1.84zM301.41 160.44h15.27v1.54h-13.43v5.13h12.95v1.45h-12.95v5.68h13.54v1.54h-15.38zM326.5 161.98h-7.8v-1.54h17.41v1.54h-7.77v13.8h-1.84zM338.5 160.44h12.65c2.32 0 3.4.3 4.2 1.17a5.25 5.25 0 0 1 .95 3.52c0 2.48-.57 3.36-2.46 3.8 1.57.3 2.16 1.1 2.16 2.87v3.98h-1.84v-2.92c.05-2.65-.62-3.3-3.29-3.27h-10.53v6.19h-1.84zm11.94 7.7c3.15 0 3.95-.62 3.95-3.1 0-2.44-.82-3.06-4.07-3.06h-9.98v6.16zM359.83 160.44h1.84v15.34h-1.84zM383.56 170.63v.64c0 1.84-.19 2.64-.78 3.33a3.72 3.72 0 0 1-2.74 1.18c-.88.07-3.5.16-5.57.16-5.54 0-6.9-.23-8.02-1.4-.99-1.02-1.22-2.24-1.22-6.42 0-4.78.32-6 1.89-7 1.17-.73 2.43-.84 8.76-.84 3.84 0 5.17.18 6.11.87 1.04.71 1.36 1.68 1.43 4.12h-1.8v-.4c0-2.7-.64-2.98-7.08-2.98-7.36 0-7.4.02-7.4 6.23 0 3.5.16 4.6.8 5.26.74.76 1.91.95 6.21.95 6.9 0 7.61-.25 7.61-2.83v-.87zM392.44 160.44h12.65c2.32 0 3.4.3 4.2 1.17a5.25 5.25 0 0 1 .95 3.52c0 2.48-.58 3.36-2.46 3.8 1.56.3 2.16 1.1 2.16 2.87v3.98h-1.84v-2.92c.04-2.65-.62-3.3-3.29-3.27h-10.53v6.19h-1.84zm11.93 7.7c3.15 0 3.96-.62 3.96-3.1 0-2.44-.83-3.06-4.07-3.06h-9.98v6.16zM413.76 160.44h15.27v1.54H415.6v5.13h12.94v1.45H415.6v5.68h13.54v1.54h-15.38zM433.52 171v.4c0 1.55.32 2.17 1.3 2.49a20.12 20.12 0 0 0 5.37.44c6 0 7.08-.46 7.08-3.01 0-1.3-.4-1.87-1.43-2.17-1.01-.27-1.1-.27-7.95-.32-2.79-.02-3.98-.23-4.93-.85a3.14 3.14 0 0 1-1.28-2.99c0-2.3.82-3.6 2.64-4.14a24.62 24.62 0 0 1 6.49-.57c3.54 0 5.35.25 6.41.92 1.13.69 1.47 1.5 1.54 3.63h-1.8c-.01-1.22-.22-1.77-.73-2.16-.71-.55-2.3-.78-5.4-.78-6.05 0-7.22.48-7.22 2.94 0 1.06.3 1.66.94 1.95.8.37 1.5.42 5.84.44 4.88.02 5.93.12 7.04.65 1.24.6 1.75 1.63 1.75 3.54 0 2.11-.72 3.38-2.23 3.95-1.13.42-2.88.58-6.42.58-3.72 0-5.47-.16-6.71-.58a3.22 3.22 0 0 1-2.14-3.31v-1.06zM470.5 160.44v10.42a8.05 8.05 0 0 1-.23 2.7c-.72 1.94-2.3 2.38-8.81 2.38-5.31 0-7.06-.28-8.07-1.24a3.04 3.04 0 0 1-.92-2.05 15.51 15.51 0 0 1-.05-1.8v-10.41h1.84v10.1a7.28 7.28 0 0 0 .1 1.92c.36 1.61 1.33 1.87 7.1 1.87 4.87 0 6.12-.19 6.74-1.04.41-.57.46-.83.46-2.76v-10.1zM474.34 160.44h1.84v13.8h12.16v1.54h-14zM493.8 161.98H486v-1.54h17.41v1.54h-7.77v13.8h-1.84zM506.93 171v.4c0 1.55.32 2.17 1.31 2.49a20.12 20.12 0 0 0 5.36.44c6 0 7.08-.46 7.08-3.01 0-1.3-.39-1.87-1.42-2.17-1.02-.27-1.1-.27-7.96-.32-2.78-.02-3.98-.23-4.92-.85a3.14 3.14 0 0 1-1.29-2.99c0-2.3.83-3.6 2.65-4.14a24.62 24.62 0 0 1 6.48-.57c3.54 0 5.36.25 6.42.92 1.12.69 1.47 1.5 1.54 3.63h-1.8c-.02-1.22-.23-1.77-.73-2.16-.72-.55-2.3-.78-5.4-.78-6.06 0-7.23.48-7.23 2.94 0 1.06.3 1.66.94 1.95.81.37 1.5.42 5.85.44 4.87.02 5.93.12 7.03.65 1.24.6 1.75 1.63 1.75 3.54 0 2.11-.71 3.38-2.23 3.95-1.13.42-2.88.58-6.42.58-3.72 0-5.47-.16-6.71-.58a3.22 3.22 0 0 1-2.14-3.31v-1.06zM528.32 173.2v2.58c.04 1.6-.9 2.5-2.62 2.48v-1.24c.78 0 1.12-.4 1.1-1.24h-.83v-2.58zM537.8 160.44h1.84v15.34h-1.84zM543.66 160.44h2.97l14.48 14.03v-14.03h1.84v15.34H560l-14.49-14.03v14.03h-1.84zM584.78 170.63v.64c0 1.84-.18 2.64-.78 3.33a3.72 3.72 0 0 1-2.74 1.18c-.87.07-3.5.16-5.56.16-5.54 0-6.9-.23-8.03-1.4-.99-1.02-1.22-2.24-1.22-6.42 0-4.78.33-6 1.89-7 1.17-.73 2.44-.84 8.76-.84 3.84 0 5.17.18 6.12.87 1.03.71 1.35 1.68 1.42 4.12h-1.8v-.4c0-2.7-.63-2.98-7.07-2.98-7.36 0-7.4.02-7.4 6.23 0 3.5.15 4.6.8 5.26.73.76 1.9.95 6.2.95 6.9 0 7.62-.25 7.62-2.83v-.87zM588.07 173.2h2.32v2.58h-2.32z" class="logo-a"/><path d="M92.24 169.4l.24 11.73v-11.71z" class="logo-b"/><path d="M64.17 57.9L48.66 89.38l43.82-11.69.24-30.06zM92.48 85.39L44.26 97.4l-18.45 37.22 66.67-13.98V92.1zM92.48 129.71l-70.34 12.33L0 186.72h92.48V132.18zM92.48 0L68.56 48.55l23.92-7.68v-.08z" class="logo-c"/><path d="M92.48 0v40.87l24.15 7.75zM92.48 47.63l28.27 8.76 16.25 33-44.52-11.7zM92.48 85.39l48.44 11.96 18.6 37.33-67.04-14.04zM177.78 171.19l-.08-.01-14.6-29.31-70.62-12.16V186.72h92.95z" class="logo-d"/><path d="M68.56 48.55l11.89 3.41 12.03-4.33 11.7 3.63 12.45-2.64-24.15-7.75zM48.43 89.39l44.05-11.7L137 89.39l-18.89 2.33-25.63-6.33-21.65 5.39zM25.81 134.62l66.67-13.98 67.04 14.04-27.47 1.78-39.57-6.75-37.56 6.58z" class="logo-e"/><path d="M137.01 89.39L92.48 77.8" class="logo-a"/><path d="M290.59 130.87a104.53 104.53 0 0 1-26.67 9.63 135.54 135.54 0 0 1-28.35 2.97 80.82 80.82 0 0 1-28.34-4.82 64.83 64.83 0 0 1-22.41-13.8 62.56 62.56 0 0 1-14.73-21.77 74.07 74.07 0 0 1-5.28-28.52 74.08 74.08 0 0 1 5.28-28.53 62.58 62.58 0 0 1 14.73-21.77 64.92 64.92 0 0 1 22.41-13.8 80.8 80.8 0 0 1 28.35-4.81 104.98 104.98 0 0 1 28.98 3.8 56.8 56.8 0 0 1 23.25 13.05l-20.37 22.23a40.67 40.67 0 0 0-13.34-9.26q-7.41-3.15-18.52-3.15a42.93 42.93 0 0 0-16.77 3.15 37.66 37.66 0 0 0-12.87 8.8 38.63 38.63 0 0 0-8.25 13.43 48.28 48.28 0 0 0-2.87 16.86 48.04 48.04 0 0 0 2.87 16.94 38.77 38.77 0 0 0 8.25 13.34 37.58 37.58 0 0 0 12.87 8.8 42.88 42.88 0 0 0 16.77 3.15 55.2 55.2 0 0 0 16.3-2.13 61.48 61.48 0 0 0 10.92-4.35V89h-23.52V62.32h51.31zM320.42 8.98h50.76a89.6 89.6 0 0 1 18.98 1.95 45.1 45.1 0 0 1 15.75 6.48 32.36 32.36 0 0 1 10.74 12.23q3.98 7.69 3.98 19.17 0 13.9-7.22 23.62t-21.12 12.32l33.35 55.38H391l-27.42-52.42h-14.26v52.42h-28.9zm28.9 54.28h17.04q3.89 0 8.24-.28a25.85 25.85 0 0 0 7.88-1.67 13.63 13.63 0 0 0 5.83-4.35q2.31-2.96 2.32-8.34a13.85 13.85 0 0 0-2.04-7.96 13.64 13.64 0 0 0-5.19-4.54 23.1 23.1 0 0 0-7.22-2.13 58.92 58.92 0 0 0-7.97-.55h-18.9zM447.49 8.98h28.9v131.15h-28.9z" class="logo-d"/><path d="M481.12 166.3l.24 11.87v-11.84z" class="logo-b"/></svg>
