<svg xmlns="http://www.w3.org/2000/svg" viewBox="0 0 203 61.7"><path fill="#fff" d="M18.06 9.56c0 2.58-.88 4.54-2.63 5.94-1.75 1.37-4.22 2.06-7.44 2.06H3.88v11.02H2.02V1.92h6.53c6.34 0 9.51 2.55 9.51 7.66m-14.19 6.4h3.66c3 0 5.18-.5 6.5-1.48 1.33-1 2-2.61 2-4.84 0-2.06-.63-3.57-1.9-4.57C12.86 4.1 10.9 3.6 8.24 3.6h-4.4v12.36m27.44-7.47c.84 0 1.74.08 2.69.25l-.35 1.74a10.4 10.4 0 0 0-2.57-.31c-1.69 0-3.06.7-4.16 2.15a8.76 8.76 0 0 0-1.63 5.43v10.93h-1.8V8.85h1.53l.18 3.57h.13a8.22 8.22 0 0 1 2.6-3.06 6.1 6.1 0 0 1 3.37-.89m18.82 20.17l-.46-3.14h-.15a9.47 9.47 0 0 1-3.1 2.72 8.15 8.15 0 0 1-3.71.8c-1.95 0-3.47-.5-4.55-1.5a5.33 5.33 0 0 1-1.63-4.14c0-1.93.8-3.44 2.4-4.5 1.63-1.08 3.96-1.65 7.03-1.7l3.76-.1v-1.32c0-1.88-.39-3.3-1.15-4.27-.77-.96-2-1.44-3.71-1.44-1.84 0-3.74.5-5.7 1.53L38.45 10a15.1 15.1 0 0 1 6.45-1.53c2.18 0 3.8.56 4.86 1.7 1.09 1.14 1.63 2.9 1.63 5.3v13.19h-1.33m-7.26-1.3c2.12 0 3.79-.6 5-1.8 1.23-1.22 1.84-2.9 1.84-5.06v-1.95l-3.47.15c-2.8.13-4.78.57-5.96 1.31-1.19.73-1.78 1.87-1.78 3.44 0 1.24.38 2.2 1.14 2.9a4.7 4.7 0 0 0 3.22 1.02m22.88 1.54c-2.87 0-5.13-.88-6.74-2.66-1.6-1.77-2.4-4.27-2.4-7.47 0-3.17.77-5.7 2.33-7.58a7.71 7.71 0 0 1 6.3-2.87c2.33 0 4.16.81 5.53 2.44 1.35 1.63 2.03 3.84 2.03 6.64v1.46H58.44c.02 2.7.66 4.8 1.9 6.23 1.25 1.43 3.03 2.15 5.37 2.15 1.14 0 2.13-.08 3-.24.86-.16 1.94-.5 3.24-1.02v1.64a14.6 14.6 0 0 1-6.23 1.27M65.2 9.93c-1.9 0-3.44.63-4.59 1.9-1.15 1.25-1.83 3.06-2.02 5.42h12.25c0-2.3-.5-4.1-1.49-5.38a4.91 4.91 0 0 0-4.13-1.95m28.44-1.17V10l-4.11.26a6.98 6.98 0 0 1 1.64 4.48c0 1.9-.64 3.46-1.92 4.65-1.26 1.18-2.95 1.76-5.1 1.76-.9 0-1.53-.04-1.9-.1-.72.36-1.26.81-1.64 1.32s-.56 1.05-.56 1.62c0 .63.24 1.1.72 1.38.49.3 1.3.44 2.43.44h3.47c2.15 0 3.79.44 4.95 1.32 1.14.86 1.71 2.14 1.71 3.84 0 2.09-.85 3.71-2.55 4.83-1.7 1.14-4.11 1.72-7.23 1.72-2.5 0-4.44-.48-5.81-1.44a4.63 4.63 0 0 1-2.05-4c0-1.37.42-2.5 1.26-3.4.86-.9 2-1.5 3.44-1.83a3.62 3.62 0 0 1-1.44-1.08 2.65 2.65 0 0 1-.53-1.62c0-1.32.85-2.5 2.54-3.49a5.6 5.6 0 0 1-2.69-2.23 6.41 6.41 0 0 1-.96-3.49c0-1.98.62-3.58 1.87-4.76 1.26-1.2 2.95-1.8 5.1-1.8 1.3 0 2.31.13 3.04.38h6.35M77.6 32c0 2.71 2.03 4.08 6.08 4.08 5.21 0 7.8-1.66 7.8-4.97 0-1.19-.42-2.06-1.23-2.59s-2.14-.8-3.95-.8h-3.26c-3.63 0-5.46 1.43-5.46 4.27m1.51-17.02c0 1.53.47 2.71 1.39 3.57a5.38 5.38 0 0 0 3.74 1.26c1.65 0 2.93-.42 3.79-1.26.88-.84 1.33-2.05 1.33-3.65 0-1.7-.46-2.96-1.37-3.8-.9-.84-2.17-1.27-3.8-1.27-1.57 0-2.82.46-3.73 1.37a5.1 5.1 0 0 0-1.35 3.76m26.36-6.46c.84 0 1.74.09 2.69.26l-.35 1.73c-.82-.21-1.68-.31-2.57-.31-1.69 0-3.06.72-4.16 2.15a8.72 8.72 0 0 0-1.63 5.43v10.94h-1.8V8.85h1.53l.18 3.58h.13a8.4 8.4 0 0 1 2.61-3.07c.92-.6 2.04-.9 3.36-.9m14.8 20.45c-2.88 0-5.14-.89-6.75-2.66-1.6-1.78-2.4-4.27-2.4-7.47 0-3.17.77-5.7 2.33-7.58a7.72 7.72 0 0 1 6.3-2.88c2.33 0 4.16.82 5.53 2.45 1.35 1.62 2.02 3.84 2.02 6.63v1.46H113c.03 2.72.66 4.81 1.9 6.24 1.25 1.43 3.04 2.15 5.38 2.15 1.13 0 2.12-.08 2.98-.24.86-.15 1.95-.5 3.25-1.02v1.64a14.36 14.36 0 0 1-6.24 1.27m-.53-18.97c-1.91 0-3.44.64-4.6 1.9-1.15 1.25-1.83 3.06-2.02 5.43h12.26c0-2.29-.5-4.08-1.49-5.37a4.93 4.93 0 0 0-4.14-1.95m25.22 13.61c0 1.78-.67 3.15-2.02 4.11-1.35.95-3.25 1.42-5.75 1.42-2.65 0-4.76-.4-6.32-1.22V25.9c2 1 4.09 1.5 6.32 1.5 1.95 0 3.44-.33 4.46-.97 1.02-.66 1.53-1.53 1.53-2.61 0-1-.4-1.84-1.22-2.52-.8-.68-2.13-1.35-3.97-2.01a22.47 22.47 0 0 1-4.17-1.84A6.04 6.04 0 0 1 132 15.7c-.4-.66-.6-1.46-.6-2.4 0-1.47.62-2.65 1.86-3.51 1.25-.86 3.01-1.3 5.24-1.3 2.14 0 4.17.4 6.1 1.2l-.67 1.65a14.23 14.23 0 0 0-5.43-1.21c-1.62 0-2.9.27-3.85.8-.95.53-1.42 1.27-1.42 2.22a3.1 3.1 0 0 0 1.1 2.48c.73.62 2.17 1.3 4.32 2.08a20.3 20.3 0 0 1 3.9 1.75 5.47 5.47 0 0 1 1.82 1.75c.4.65.62 1.43.62 2.3m17.45 0c0 1.77-.67 3.14-2.02 4.1-1.35.96-3.25 1.43-5.75 1.43-2.65 0-4.76-.41-6.32-1.23v-1.95c2 1 4.09 1.5 6.32 1.5 1.96 0 3.44-.32 4.46-.97 1.02-.65 1.53-1.53 1.53-2.6 0-1-.41-1.84-1.22-2.53a13.39 13.39 0 0 0-3.98-2 22.12 22.12 0 0 1-4.17-1.85 5.98 5.98 0 0 1-1.82-1.75c-.4-.65-.6-1.45-.6-2.39 0-1.48.62-2.65 1.86-3.52 1.25-.86 3-1.3 5.24-1.3 2.14 0 4.16.4 6.1 1.21l-.68 1.64a14.3 14.3 0 0 0-5.43-1.2 7.8 7.8 0 0 0-3.84.8c-.94.53-1.42 1.28-1.42 2.22a3.1 3.1 0 0 0 1.1 2.49c.74.62 2.18 1.3 4.32 2.08 1.79.64 3.09 1.23 3.9 1.75a5.5 5.5 0 0 1 1.82 1.75c.42.65.62 1.43.62 2.31m6.7-14.78V21.6c0 2 .42 3.44 1.26 4.36.84.9 2.14 1.35 3.9 1.35 2.36 0 4.08-.6 5.19-1.8 1.12-1.18 1.68-3.14 1.68-5.82V8.75h1.78v19.83h-1.53l-.33-2.74H181c-1.3 2.07-3.57 3.09-6.88 3.09-4.51 0-6.77-2.41-6.77-7.23V8.75h1.79m32.81 14.79c0 1.77-.67 3.14-2.02 4.1-1.35.96-3.25 1.43-5.75 1.43-2.65 0-4.76-.41-6.31-1.22V25.9c2 1 4.08 1.5 6.32 1.5 1.95 0 3.44-.33 4.46-.97 1.02-.66 1.53-1.53 1.53-2.61 0-1-.41-1.84-1.22-2.52-.8-.68-2.13-1.35-3.98-2.01a22.41 22.41 0 0 1-4.17-1.84 6.06 6.06 0 0 1-1.83-1.75c-.4-.66-.6-1.46-.6-2.4 0-1.47.62-2.65 1.86-3.51 1.25-.86 3-1.3 5.24-1.3 2.14 0 4.16.4 6.1 1.2l-.68 1.65a14.3 14.3 0 0 0-5.42-1.2 7.8 7.8 0 0 0-3.84.8c-.95.53-1.42 1.27-1.42 2.22a3.1 3.1 0 0 0 1.1 2.48c.74.62 2.18 1.32 4.32 2.08 1.79.65 3.09 1.23 3.9 1.76.8.5 1.42 1.09 1.82 1.75.42.65.62 1.43.62 2.31"/><path fill="#fa6900" d="M10.37 52.45v-7.14h7.14v7.14h-7.15m33.34 0v-7.14h7.14v7.14H43.7m16.73 0v-7.14h7.14v7.14h-7.14m16.73 0v-7.14h7.14v7.14h-7.14m8.24 0v-7.14h7.14v7.14H85.4m8.23 0v-7.14h7.15v7.14h-7.15m16.74 0v-7.14h7.14v7.14h-7.14m8.24 0v-7.14h7.14v7.14h-7.14m25.21 0v-7.14h7.14v7.14h-7.14m8.24 0v-7.14h7.14v7.14h-7.14m16.73 0v-7.14h7.14v7.14h-7.14m8.24 0v-7.14h7.14v7.14h-7.14m8.24 0v-7.14h7.14v7.14h-7.14m8.49 0v-7.14h7.14v7.14h-7.14M10.36 60.7v-7.14h7.15v7.14h-7.14m8.34 0v-7.14h7.14v7.14H18.7m16.75 0v-7.14h7.14v7.14h-7.14m8.24 0v-7.14h7.14v7.14H43.7m33.46 0v-7.14h7.14v7.14h-7.14m8.24 0v-7.14h7.14v7.14H85.4m8.24 0v-7.14h7.14v7.14h-7.14m16.73 0v-7.14h7.14v7.14h-7.14m8.23 0v-7.14h7.14v7.14h-7.14m25.22 0v-7.14h7.14v7.14h-7.14m8.24 0v-7.14h7.14v7.14h-7.14m24.97 0v-7.14h7.14v7.14h-7.14m16.73 0v-7.14h7.14v7.14h-7.14"/></svg>
