<svg xmlns="http://www.w3.org/2000/svg" viewBox="0 0 455.1 56.1"><g fill="#fff"><path d="M160.2 27.2c3.6 0 6.2-.5 8.1-1.8 2.7-1.8 3.9-4.8 3.9-8.6 0-4.1-1.4-6.8-3.6-8.4-1.9-1.4-4.6-2-8.6-2h-4.7v48.7h-7.9v-54h13.9c5.3 0 9.6.6 13.3 3.1 5.7 3.9 5.9 10.2 5.9 11.6 0 6.8-3.5 11.8-9.6 14-.5.2-1.2.4-1.8.5l16.3 24.8h-9l-17.9-27.9h1.7zM12.8 27.2c3.6 0 6.2-.5 8.1-1.8 2.7-1.8 3.9-4.8 3.9-8.6 0-4.1-1.4-6.8-3.6-8.4-1.9-1.4-4.6-2.1-8.7-2.1H7.9V55H0V1h13.9c5.3 0 9.6.6 13.3 3.1 5.7 3.9 5.9 10.2 5.9 11.6 0 6.8-3.5 11.8-9.6 14-.5.2-1.2.4-1.8.5L38 55.1h-9L11 27.2h1.8zM43.9 1.1h8v54h-8zM103.5 1.1l-19.1 54h-6.3l-19.4-54h8.7l15 42.7L97.1 1.1zM117.5 49.8h23.1v5.3h-31v-54h29.1v5.3h-21.2v17.9h20.4v5.3h-20.4zM218.6 1.1h8v54h-8zM253.1 0c4.3 0 8.9 1 13 2.8V10c-4.7-2.9-9.6-4.4-13.7-4.4-5 0-8.8 2.5-8.8 7.1 0 12 25.8 9.9 25.8 27.9 0 8.7-6 15.6-18.2 15.6-5.3 0-10.6-1.3-14.9-3.6v-7.7c3.5 3.3 9.9 5.7 15.5 5.7 5.9 0 10.5-2.7 10.5-8.2 0-12.8-25.8-10.5-25.8-28.4.1-9.8 7.7-14 16.6-14M286.7 1.1v48.7h21.7l-1.9 5.3h-27.8v-54zM357.6 55.1h-8.7l-5.2-14.3h-20.8l-5.1 14.3h-6.4l19.7-54h6.4l20.1 54zm-32.8-19.6h17l-8.6-23.8-8.4 23.8zM403.9 1.1v54h-5.3l-29-40.3v40.3h-6.1v-54h6.4L397.8 40V1.1zM447.6 49.1c-4.5 4.1-11.1 6.1-19 6.1H413v-54h15.6c7.9 0 14.5 1.9 19 6 5.1 4.7 7.5 12.1 7.5 21 0 8.8-2.4 16.2-7.5 20.9m-8.2-39.4c-3.1-2.1-7.2-3.2-13.4-3.2h-5v43.1h5c5.6 0 10.1-.9 13.4-3.2 5-3.4 7.4-9.9 7.4-18.4-.1-8.5-2.4-14.8-7.4-18.3"/></g></svg>
