<svg xmlns="http://www.w3.org/2000/svg" viewBox="0 0 149.31 10.5"><g fill="#fff"><path fill-rule="evenodd" d="M.02 7.84c-.06-.29.01-.45.16-.45.2 0 .2.17.27.48a3.1 3.1 0 0 0 3.05 2.17c1.38 0 2.73-.77 2.73-2.29 0-2.8-5.89-1.23-5.89-5.02C.34.9 1.9.01 3.56.01 5.3 0 5.79.53 5.99.53c.13 0 .16-.16.3-.16.1 0 .17.04.18.2l.22 1.97c.01.12-.02.22-.16.22-.16 0-.26-.3-.3-.43C5.79 1.08 4.73.44 3.46.44 2.3.44 1.09.99 1.09 2.33c0 2.72 5.89 1.13 5.89 5.13 0 1.22-.86 3.05-4.15 3.05-1.07 0-2.39-.54-2.45-.8zM15.6 8.34c.14.35.44.96.44 1.24 0 .5-.86.37-.86.68 0 .13.23.13.31.13.4 0 .79-.06 1.18-.06.59 0 1.18.06 1.78.06.1 0 .2 0 .2-.12 0-.32-.84-.03-1.27-.63-.34-.46-.51-1.01-.73-1.5l-3.01-6.7c-.04-.11-.15-.49-.3-.49-.2 0-.24.21-1.09 1.85L8.78 9.45c-.37.75-1.05.52-1.05.8 0 .08.04.14.13.14.37 0 .76-.06 1.15-.06.41 0 .82.06 1.22.06.19 0 .4.04.4-.2 0-.33-1.04.06-1.04-.86 0-.17.06-.36.1-.45l.93-1.84c.15-.27.4-.27.68-.27h3.19c.4 0 .5.2.64.5zM12.85 2.8c.08-.15.16-.15.23 0l1.42 3.14c.07.17.09.26-.23.26H11.4c-.19 0-.29-.05-.19-.23zM26.86 8.34c.15.35.45.96.45 1.24 0 .5-.87.37-.87.68 0 .13.24.13.32.13.4 0 .78-.06 1.18-.06.59 0 1.18.06 1.78.06.1 0 .2 0 .2-.12 0-.32-.84-.03-1.28-.63-.33-.46-.5-1.01-.72-1.5l-3.01-6.7c-.05-.11-.15-.49-.3-.49-.2 0-.24.21-1.1 1.85l-3.46 6.65c-.38.75-1.06.52-1.06.8 0 .08.05.14.13.14.38 0 .77-.06 1.16-.06.4 0 .81.06 1.22.06.19 0 .4.04.4-.2 0-.33-1.04.06-1.04-.86 0-.17.06-.36.1-.45l.93-1.84c.15-.27.4-.27.68-.27h3.19c.4 0 .49.2.63.5zM24.13 2.8c.08-.15.16-.15.23 0l1.42 3.14c.07.17.08.26-.23.26h-2.87c-.19 0-.3-.05-.19-.23zM32.74 2.47c0-.1.06-.59-.15-.6h-2.35c-.9 0-.92.2-1.18.91-.05.13-.06.3-.25.3-.09 0-.15-.09-.15-.15l.16-1.27c.02-.16 0-.5.26-.5 1.13 0 2.24.05 4.1.05 2.64 0 3.97-.06 4.26-.06.33 0 .4.08.42.38l.07 1.04c.02.14.03.3-.16.3-.53 0 .25-1-1.23-1h-2.07c-.66 0-.59-.05-.59.64v6.66c0 1.1 1.18.66 1.18 1.07 0 .04.01.15-.13.15-.35 0-.76-.05-1.18-.05-1.62 0-1.9.05-1.98.05-.13 0-.17-.04-.17-.17 0-.3 1.14-.18 1.14-.96zM43.75 1.04c2.72 0 3.47 1 3.9 1 .1 0 .2-.13.34-.13.16 0 .16.21.2 1.06.03.7.16 1.13-.08 1.13-.18 0-.28-.34-.34-.44-.9-1.4-1.92-2.24-3.8-2.24-2.82 0-4.18 1.7-4.18 4.13 0 2.27 1.45 4.54 4.23 4.54 2.27 0 3.7-1.3 3.91-1.9.03-.1.12-.18.2-.18.08 0 .15.08.13.15l-.33 1.3c-.01.06-1.04 1.03-4.3 1.03-2.97 0-5.1-1.84-5.1-4.54s2.16-4.91 5.22-4.91M50.27 2.27c-.01-.95-1.26-.7-1.26-.98 0-.11.12-.14.23-.14.54 0 1.06.06 1.6.06.45 0 .9-.06 1.34-.06.25 0 .28.08.28.13 0 .26-1.04.01-1.04.99v2.81c0 .19 0 .24.21.24h5.3c.14 0 .11-.33.11-.38V2.27c0-.9-1.08-.68-1.08-.98 0-.08.03-.14.24-.14.48 0 1.23.06 1.5.06.55 0 .76-.06 1.05-.06.38 0 .4.13.4.2 0 .24-.96.02-.96.92v6.92c0 .95 1.32.72 1.32 1.04 0 .04-.06.16-.16.16-.4 0-.84-.06-1.37-.06-.92 0-1.33.06-1.6.06-.13 0-.35.04-.35-.17 0-.31 1.01-.13 1.01-.95V6.13c0-.2.06-.32-.11-.32h-5.34c-.17 0-.17.07-.17.22v3.25c0 .89 1.37.6 1.37 1 0 .07-.1.11-.23.11-.19 0-1.24-.06-2.01-.06-1.03 0-1.2.06-1.25.06-.12 0-.16-.06-.16-.2 0-.37 1.13.06 1.13-1.24zM61.67 2.28c-.01-.95-1.17-.7-1.17-.98 0-.12.03-.14.14-.14.54 0 1.06.05 1.6.05.45 0 .9-.05 1.35-.05.23 0 .27.02.27.13 0 .31-1.04.01-1.04.99v7c0 .9 1.29.6 1.29.99 0 .09-.05.13-.3.13-.32 0-.95-.06-1.57-.06-.89 0-1.19.06-1.4.06-.25 0-.3-.07-.3-.2 0-.38 1.13.05 1.13-1.24zM75.27.8c0-.13.03-.4-.18-.4-.13 0-.18.12-.26.12-.07 0-.62-.39-1.55-.39-1.17 0-2.35.66-2.35 1.97 0 .61.3 1.2.67 1.65-1.55.33-2.3 1.53-2.3 3.09 0 2.27 1.85 3.67 3.98 3.67 1.42 0 2.52-.5 3.57-1.46.8.63 1.59 1.46 2.67 1.46.48 0 1.2-.22 1.2-.47 0-.03 0-.11-.1-.11-.11 0-.25.07-.54.07-.66 0-2.02-1.41-2.57-1.84a6.9 6.9 0 0 0 .68-2.67c.07-.64.63-.48.63-.71 0-.15-.08-.18-.2-.18-.5 0-.74.06-.93.06-.22 0-.73-.06-1.26-.06-.12 0-.34-.03-.34.13 0 .47 1.37-.11 1.37 1.58 0 .61-.06 1.13-.42 1.54-3.13-2.9-5.28-5.2-5.28-6.16 0-.7.54-1.18 1.2-1.18.89 0 1.64.77 1.99 1.52.04.1.09.26.22.26.05 0 .14-.04.14-.11zm-1.5 8.86c-1.87 0-3.7-1.63-3.7-3.56 0-.85.66-1.99 1.57-1.99.53 0 1.63 1.96 4.73 4.62-.71.6-1.67.93-2.6.93M85.22 7.84c-.06-.29.01-.45.16-.45.2 0 .2.17.27.48a3.1 3.1 0 0 0 3.05 2.17c1.38 0 2.72-.77 2.72-2.29 0-2.8-5.88-1.23-5.88-5.02C85.54.9 87.09.01 88.76.01c1.75 0 2.23.52 2.43.52.13 0 .16-.16.3-.16.1 0 .17.04.18.2l.22 1.97c.01.12-.02.22-.16.22-.16 0-.26-.3-.3-.43-.44-1.25-1.5-1.89-2.78-1.89-1.14 0-2.36.55-2.36 1.89 0 2.72 5.89 1.13 5.89 5.13 0 1.22-.86 3.05-4.15 3.05-1.07 0-2.39-.54-2.45-.8zM100.8 8.34c.15.35.46.96.46 1.24 0 .5-.87.37-.87.68 0 .13.23.13.32.13.39 0 .78-.06 1.17-.06.6 0 1.19.06 1.78.06.1 0 .2 0 .2-.12 0-.32-.84-.03-1.27-.63-.33-.46-.5-1.01-.72-1.5l-3.02-6.7c-.04-.11-.14-.49-.3-.49-.19 0-.23.21-1.09 1.85L94 9.45c-.38.75-1.06.52-1.06.8 0 .08.04.14.13.14.37 0 .77-.06 1.16-.06.4 0 .8.06 1.21.06.2 0 .4.04.4-.2 0-.33-1.03.06-1.03-.86 0-.17.05-.36.1-.45l.92-1.84c.15-.27.41-.27.69-.27h3.18c.4 0 .5.2.64.5zM98.08 2.8c.09-.15.16-.15.23 0l1.42 3.14c.07.17.09.26-.23.26h-2.87c-.19 0-.29-.05-.19-.23zM112.08 8.34c.14.35.45.96.45 1.24 0 .5-.87.37-.87.68 0 .13.23.13.32.13.39 0 .78-.06 1.17-.06.6 0 1.19.06 1.78.06.1 0 .2 0 .2-.12 0-.32-.84-.03-1.27-.63-.33-.46-.5-1.01-.72-1.5l-3.02-6.7c-.04-.11-.14-.49-.3-.49-.19 0-.23.21-1.09 1.85l-3.46 6.65c-.38.75-1.06.52-1.06.8 0 .08.04.14.13.14.38 0 .77-.06 1.16-.06.4 0 .8.06 1.21.06.2 0 .4.04.4-.2 0-.33-1.03.06-1.03-.86 0-.17.06-.36.1-.45l.92-1.84c.15-.27.41-.27.69-.27h3.18c.4 0 .5.2.64.5zm-2.74-5.54c.09-.15.16-.15.23 0L111 5.94c.07.17.09.26-.23.26h-2.87c-.19 0-.29-.05-.19-.23zM117.94 2.47c0-.1.06-.59-.15-.6h-2.35c-.9 0-.92.2-1.18.91-.05.13-.06.3-.25.3-.09 0-.15-.09-.15-.15l.16-1.27c.02-.16 0-.5.27-.5 1.12 0 2.23.05 4.1.05 2.63 0 3.96-.06 4.25-.06.33 0 .4.08.42.38l.07 1.04c.02.14.03.3-.16.3-.53 0 .25-1-1.23-1h-2.07c-.66 0-.59-.05-.59.64v6.66c0 1.1 1.18.66 1.18 1.07 0 .04.02.15-.13.15-.35 0-.75-.05-1.18-.05-1.62 0-1.9.05-1.98.05-.13 0-.17-.04-.17-.17 0-.3 1.14-.18 1.14-.96zM128.95 1.04c2.72 0 3.47 1 3.9 1 .1 0 .2-.13.34-.13.16 0 .16.21.2 1.06.03.7.16 1.13-.08 1.13-.18 0-.28-.34-.34-.44-.9-1.4-1.92-2.24-3.8-2.24-2.82 0-4.18 1.7-4.18 4.13 0 2.27 1.45 4.54 4.23 4.54 2.28 0 3.7-1.3 3.91-1.9.03-.1.12-.18.2-.18.08 0 .15.08.14.15l-.34 1.3c-.01.06-1.04 1.03-4.3 1.03-2.97 0-5.1-1.84-5.1-4.54s2.16-4.91 5.22-4.91M135.48 2.27c-.02-.95-1.26-.7-1.26-.98 0-.11.11-.14.23-.14.54 0 1.06.06 1.6.06.44 0 .9-.06 1.34-.06.25 0 .28.08.28.13 0 .26-1.04.01-1.04.99v2.81c0 .19 0 .24.21.24h5.3c.14 0 .1-.33.1-.38V2.27c0-.9-1.08-.68-1.08-.98 0-.08.03-.14.25-.14.48 0 1.23.06 1.5.06.54 0 .76-.06 1.05-.06.38 0 .4.13.4.2 0 .24-.96.02-.96.92v6.92c0 .95 1.31.72 1.31 1.04 0 .04-.05.16-.16.16-.39 0-.84-.06-1.36-.06-.93 0-1.33.06-1.6.06-.14 0-.35.04-.35-.17 0-.31 1-.13 1-.95V6.13c0-.2.07-.32-.1-.32h-5.34c-.17 0-.17.07-.17.22v3.25c0 .89 1.37.6 1.37 1 0 .07-.1.11-.23.11-.2 0-1.25-.06-2.02-.06-1.02 0-1.18.06-1.24.06-.12 0-.16-.06-.16-.2 0-.37 1.13.06 1.13-1.24zM146.88 2.28c-.02-.95-1.17-.7-1.17-.98 0-.12.02-.14.14-.14.54 0 1.06.05 1.6.05.44 0 .9-.05 1.34-.05.23 0 .28.02.28.13 0 .31-1.04.01-1.04.99v7c0 .9 1.28.6 1.28.99 0 .09-.04.13-.29.13-.33 0-.95-.06-1.58-.06-.88 0-1.18.06-1.39.06-.26 0-.3-.07-.3-.2 0-.38 1.13.05 1.13-1.24z"/></g></svg>
