<svg xmlns="http://www.w3.org/2000/svg" viewBox="0 0 172.84 37.23"><g fill="#fff" stroke-width=".26" aria-label="VAT.me"><path d="M16.23 36.54q.74 0 1.36-.08.65-.07 1.2-.27.56-.22.98-.45.45-.22.87-.67.45-.47.75-.84.32-.4.7-1.14.36-.74.61-1.32.27-.57.65-1.6l.62-1.84.72-2.16 7.39-19.13q1.01-3-.42-4.98-1.12-1.54-3-1.54-2.19 0-3.68 2.11-.74 1.04-1.16 2.46l-7.6 21.8-7.56-21.8Q7.66 1.8 5.34.84q-1.89-.79-3.52.28Q.1 2.23 0 4.54q-.04 1.19.4 2.5l7.4 19.13.76 2.38.7 1.98q.42 1.12.72 1.72l.7 1.36q.41.74.78 1.12.4.37.9.79.52.42 1.09.6.57.17 1.24.3.7.12 1.54.12zM59.12 33.06q.57 1.72 1.76 2.63 1.22.92 2.43.85 1.22-.1 2.31-.75 1.12-.67 1.47-2.1.34-1.47-.2-3.26L57.83 7.02q-.72-2.11-1.58-3.52-.87-1.44-1.86-2.19-1-.74-1.99-1.01-.97-.3-2.2-.3-1.25 0-2.24.3Q47 .57 46 1.3q-1 .75-1.86 2.19-.87 1.41-1.59 3.52L33.5 30.43q-.55 1.8-.2 3.25.35 1.44 1.44 2.11 1.12.65 2.33.75 1.22.07 2.4-.85 1.22-.91 1.8-2.63l1.63-4.66H57.5zm-3.47-9.84H44.74l5.45-15.5zM81.18 36.61q1.89 0 3.23-1.51 1.36-1.54 1.36-3.65V7.35h6.67q1.44 0 2.48-1 1.05-1 1.05-2.4 0-1.45-1.05-2.44Q93.88.5 92.44.5H69.8q-1.44 0-2.5 1.01-1.05 1-1.05 2.4 0 1.42 1.04 2.44 1.07 1 2.5 1h6.83v24.1q0 2.11 1.31 3.65 1.34 1.51 3.25 1.51zM100.61 36.59q1.04 0 1.61-.57.6-.58.6-1.37 0-.72-.57-1.31-.57-.6-1.64-.6-1.04 0-1.64.6-.57.57-.57 1.31 0 .77.57 1.37.57.57 1.64.57zM110.62 36.61q.62 0 1.04-.32.45-.35.45-1V22.16q0-4.24 2.2-6.45 2.21-2.23 5.96-2.23 6.05 0 6.05 8.5v13.3q0 .65.4 1 .4.34.99.34.57 0 1.02-.35.44-.34.44-.99V21.63q0-2.2.67-3.85.7-1.66 1.86-2.55 1.2-.92 2.56-1.34 1.39-.42 3-.42 2.98 0 4.56 1.8 1.6 1.82 1.6 5.3V35.3q0 .64.39.99.42.32 1.02.32.57 0 .99-.32.44-.35.44-1V20.9q0-2.49-.71-4.35-.72-1.88-1.99-2.95-1.24-1.07-2.73-1.59t-3.2-.52q-7.39 0-9.25 6.15-1.46-6.15-8.09-6.15-2.92 0-5.16 1.5-2.23 1.45-3.02 3.71v-3.27q0-.6-.45-.92-.42-.32-.99-.32-.57 0-1.02.34-.44.35-.44.92V35.3q0 .64.4.99.41.32 1.01.32zM161.72 37.23q1.98 0 3.67-.37t2.9-1.04q1.22-.67 1.96-1.24t1.5-1.34q.51-.52.51-1.1 0-.4-.25-.64-.24-.25-.64-.25-.47 0-.97.42-1.86 1.62-3.8 2.51-1.9.87-4.76.87-1.7-.05-3.27-.7-1.56-.64-2.83-1.86-1.26-1.21-2-3.12-.75-1.94-.75-4.32v-.4h18.25q.75 0 1.17-.27.42-.3.42-.72-.52-12.18-10.99-12.18-3.6 0-6.32 1.84-2.7 1.81-4.07 4.76-1.36 2.93-1.36 6.48 0 2.85.94 5.28.97 2.4 2.55 4.02 1.62 1.59 3.73 2.48 2.1.9 4.41.9zm-8.6-14.46q.12-1.86.76-3.5.65-1.66 1.74-2.95 1.11-1.31 2.8-2.06 1.69-.77 3.72-.77 3.87 0 5.86 2.56 2 2.53 2.23 6.72z"/></g></svg>
